<?xml version="1.0" encoding="UTF-8"?>
<svg id="Layer_1" data-name="Layer 1" xmlns="http://www.w3.org/2000/svg" version="1.1" viewBox="0 0 60 60">
  <defs>
    <style>
      .cls-1 {
        fill: #616161;
        stroke-width: 0px;
      }
    </style>
  </defs>
  <g>
    <path class="cls-1" d="M19.8,37.1c-2.9-1.3-6.5-.4-9.4-1.6,17.5-.3,23.4-9.8,25.1-23.6.2,10.9,6.5,22,18.3,22.8,1.9.3,10,.8,3.5,1.4-14.1,0-21.5,10.9-22.1,23.9-.7-9.7-4.5-20.9-15.4-22.9Z"/>
    <path class="cls-1" d="M2.5,19.8c3.8-.5,5.1-3.6,6.1-6.9.8,4.1,3.5,7.2,7.9,7.7-4.3.8-7.1,3.7-7.9,7.8-.9-4.7-4.2-7.1-8.3-7.9h0c.3,0,.6,0,.7-.3.5,0,1.1.1,1.5-.3Z"/>
    <path class="cls-1" d="M21.1,7.6c-.9-1.7-2.1-2.9-4-3.6,2-.7,3.2-2.1,3.9-4,.7,2,2,3.3,3.9,4-1.8.6-3,1.9-3.9,3.6Z"/>
  </g>
  <g>
    <path class="cls-1" d="M571.5,302.7c-8.3-3.7-18.3-1.1-26.5-4.6,49.3-1,65.9-27.7,70.6-66.5.6,30.7,18.4,62,51.7,64.2,5.4.7,28.1,2.3,9.9,3.9-39.8-.3-60.7,30.7-62.2,67.4-2-27.5-12.8-58.8-43.5-64.4Z"/>
    <path class="cls-1" d="M522.8,253.9c10.8-1.5,14.4-10.1,17.1-19.4,2.2,11.6,9.9,20.4,22.3,21.7-12.1,2.3-20.1,10.3-22.2,22-2.5-13.2-12-19.9-23.3-22.4h0c.8,0,1.7.1,2-1,1.4,0,3.1.4,4.2-.9Z"/>
    <path class="cls-1" d="M575.2,219.5c-2.6-4.8-6-8.3-11.3-10.1,5.7-1.9,8.9-5.9,11.1-11.3,2,5.5,5.6,9.3,11,11.3-5.2,1.7-8.6,5.3-10.9,10.1Z"/>
  </g>
</svg>